# File created by Blade
# Date/Time:  Thu Jan 22 19:13:21 2015
#---------------------------------------------------------
:version 1.10
:name HOM
:units
  mass 1.0
  length 1.000000
  angle deg
:documentation
     Acclaim Skeleton File
:root
   axis xyz
   order TX TY TZ RX RY RZ
   position 0.000000 0.000000 0.000000
   orientation 0 0 0
:bonedata
   begin
      id 1
      name RightUpLeg_dum
      direction -1.000000 0.000000 0.000000
      length 4.478084
      axis 0.0 0.0 0.0 xyz
   end
   begin
      id 2
      name LeftUpLeg_dum
      direction 1.000000 0.000000 0.000000
      length 4.478084
      axis 0.0 0.0 0.0 xyz
   end
   begin
      id 3
      name Spine_dum
      direction 0.000000 1.000000 0.000000
      length 6.068208
      axis 0.0 0.0 0.0 xyz
   end
   begin
      id 4
      name RightUpLeg
      direction 0.000000 -1.000000 0.000000
      length 16.405774
      axis 0.0 0.0 0.0 xyz
      dof rx ry rz
   end
   begin
      id 5
      name RightLeg
      direction 0.000000 -1.000000 0.000000
      length 14.644143
      axis 0.0 0.0 0.0 xyz
      dof rx ry rz
   end
   begin
      id 6
      name RightFoot
      direction 0.000000 -0.258819 0.965926
      length 5.806150
      axis 15.0 0.0 0.0 xyz
      dof rx ry rz
   end
   begin
      id 7
      name RightToeBase
      direction 0.000000 0.000000 1.000000
      length 2.952750
      axis 0.0 0.0 0.0 xyz
      dof rx ry rz
   end
   begin
      id 8
      name LeftUpLeg
      direction 0.000000 -1.000000 0.000000
      length 16.405774
      axis 0.0 0.0 0.0 xyz
      dof rx ry rz
   end
   begin
      id 9
      name LeftLeg
      direction 0.000000 -1.000000 0.000000
      length 14.644143
      axis 0.0 0.0 0.0 xyz
      dof rx ry rz
   end
   begin
      id 10
      name LeftFoot
      direction 0.000000 -0.258819 0.965926
      length 5.806150
      axis 15.0 0.0 0.0 xyz
      dof rx ry rz
   end
   begin
      id 11
      name LeftToeBase
      direction 0.000000 0.000000 1.000000
      length 2.952750
      axis 0.0 0.0 0.0 xyz
      dof rx ry rz
   end
   begin
      id 12
      name Spine
      direction 0.000000 1.000000 0.000000
      length 0.000000
      axis 0.0 0.0 0.0 xyz
      dof rx ry rz
   end
   begin
      id 13
      name Spine_dum1
      direction 0.000000 1.000000 0.000000
      length 10.013923
      axis 0.0 0.0 0.0 xyz
   end
   begin
      id 14
      name Spine_dum2
      direction 0.000000 1.000000 0.000000
      length 10.013923
      axis 0.0 0.0 0.0 xyz
   end
   begin
      id 15
      name Spine_dum3
      direction 0.000000 1.000000 0.000000
      length 15.777476
      axis 0.0 0.0 0.0 xyz
   end
   begin
      id 16
      name RightShoulder
      direction -1.000000 0.000000 0.000000
      length 7.190220
      axis 0.0 0.0 90.0 xyz
      dof rx ry rz
   end
   begin
      id 17
      name RightArm
      direction -1.000000 0.000000 0.000000
      length 10.177469
      axis 0.0 0.0 90.0 xyz
      dof rx ry rz
   end
   begin
      id 18
      name RightForeArm
      direction -1.000000 0.000000 0.000000
      length 8.392114
      axis 0.0 0.0 90.0 xyz
      dof ry rz rx
   end
   begin
      id 19
      name RightHand
      direction -1.000000 0.000000 0.000000
      length 0.000000
      axis 0.0 0.0 90.0 xyz
      dof rx ry rz
   end
   begin
      id 20
      name RightHand_dum1
      direction -1.000000 0.000000 0.000000
      length 3.937000
      axis 0.0 0.0 90.0 xyz
   end
   begin
      id 21
      name RightHand_dum2
      direction 0.000000 0.000000 0.000000
      length 0.000000
      axis 0.0 0.0 90.0 xyz
   end
   begin
      id 22
      name RightHandThumb1
      direction 0.000000 0.000000 1.000000
      length 3.937000
      axis 0.0 0.0 90.0 xyz
      dof rx rz ry
   end
   begin
      id 23
      name LeftShoulder
      direction 1.000000 0.000000 0.000000
      length 7.190220
      axis 0.0 0.0 -90.0 xyz
      dof rx ry rz
   end
   begin
      id 24
      name LeftArm
      direction 1.000000 0.000000 0.000000
      length 10.177469
      axis 0.0 0.0 -90.0 xyz
      dof rx ry rz
   end
   begin
      id 25
      name LeftForeArm
      direction 1.000000 0.000000 0.000000
      length 8.392114
      axis 0.0 0.0 -90.0 xyz
      dof ry rz rx
   end
   begin
      id 26
      name LeftHand
      direction 1.000000 0.000000 0.000000
      length 0.000000
      axis 0.0 0.0 -90.0 xyz
      dof rx ry rz
   end
   begin
      id 27
      name LeftHand_dum1
      direction 1.000000 0.000000 0.000000
      length 3.937000
      axis 0.0 0.0 -90.0 xyz
   end
   begin
      id 28
      name LeftHand_dum2
      direction 0.000000 0.000000 0.000000
      length 0.000000
      axis 0.0 0.0 -90.0 xyz
   end
   begin
      id 29
      name LeftHandThumb1
      direction 0.000000 0.000000 1.000000
      length 3.937000
      axis 0.0 0.0 -90.0 xyz
      dof rx rz ry
   end
   begin
      id 30
      name Head
      direction 0.000000 1.000000 0.000000
      length 4.527550
      axis 0.0 0.0 0.0 xyz
      dof rx ry rz
   end
:hierarchy
   begin
      root RightUpLeg_dum LeftUpLeg_dum Spine_dum
      RightUpLeg_dum RightUpLeg
      LeftUpLeg_dum LeftUpLeg
      Spine_dum Spine
      RightUpLeg RightLeg
      RightLeg RightFoot
      RightFoot RightToeBase
      LeftUpLeg LeftLeg
      LeftLeg LeftFoot
      LeftFoot LeftToeBase
      Spine Spine_dum1 Spine_dum2 Spine_dum3
      Spine_dum1 RightShoulder
      Spine_dum2 LeftShoulder
      Spine_dum3 Head
      RightShoulder RightArm
      RightArm RightForeArm
      RightForeArm RightHand
      RightHand RightHand_dum1 RightHand_dum2
      RightHand_dum2 RightHandThumb1
      LeftShoulder LeftArm
      LeftArm LeftForeArm
      LeftForeArm LeftHand
      LeftHand LeftHand_dum1 LeftHand_dum2
      LeftHand_dum2 LeftHandThumb1
   end

# File created by Blade
# Date/Time:  Thu Jan 22 19:13:14 2015
# Frame Rate: 120.000 fps
#------------------------------------------------------
:FULLY-SPECIFIED
:DEGREES
1100
root 2.885868 29.899843 -6.878835 67.299434 -53.518966 -14.345453
RightUpLeg -76.101227 4.631838 -0.989676
RightLeg -3.917904 -0.000000 0.000000
RightFoot 16.658743 -1.971520 6.477859
RightToeBase 10.621046 -0.000000 -0.000000
LeftUpLeg -35.299611 42.117459 2.835104
LeftLeg 0.564198 -0.000000 -0.000000
LeftFoot -17.904227 6.221756 -38.761535
LeftToeBase 11.177109 -0.000000 -0.000000
Spine 45.001181 -29.559524 -24.857134
RightShoulder -23.747930 -20.935214 -17.181593
RightArm -11.159938 37.103808 54.275794
RightForeArm 26.242384 -0.000000 12.264610
RightHand 15.832249 -0.000000 -17.770428
RightHandThumb1 -24.326973 -0.000000 -32.862282
LeftShoulder -0.334152 -18.153494 28.447325
LeftArm 47.859214 -7.303020 -57.017742
LeftForeArm 6.554704 -0.000000 4.468413
LeftHand -1.409470 -0.000000 -10.729269
LeftHandThumb1 -26.253704 0.000000 33.147579
Head -18.246640 -32.789360 17.828922
1101
root 2.902907 29.902776 -6.881588 66.885887 -53.470103 -14.102599
RightUpLeg -75.872987 4.459096 -0.960531
RightLeg -3.963537 -0.000000 0.000000
RightFoot 16.674233 -1.929777 6.482365
RightToeBase 10.650159 -0.000000 -0.000000
LeftUpLeg -35.147215 41.997711 2.905235
LeftLeg 0.619216 -0.000000 -0.000000
LeftFoot -17.865564 6.176148 -38.733203
LeftToeBase 11.152209 -0.000000 -0.000000
Spine 44.695678 -29.586097 -24.659610
RightShoulder -23.713068 -20.895423 -17.276947
RightArm -11.104055 37.168513 54.324112
RightForeArm 26.166877 -0.000000 12.336778
RightHand 15.917160 -0.000000 -17.915739
RightHandThumb1 -24.326973 -0.000000 -32.862282
LeftShoulder -0.520039 -18.013859 28.372899
LeftArm 47.784574 -7.275699 -56.980538
LeftForeArm 6.725037 -0.000000 4.550550
LeftHand -1.512056 -0.000000 -10.759399
LeftHandThumb1 -26.253704 0.000000 33.147579
Head -18.557353 -32.080123 17.740572
1102
root 2.916868 29.903266 -6.883549 66.480613 -53.431264 -13.895842
RightUpLeg -75.604889 4.313159 -0.907485
RightLeg -4.054025 -0.000000 0.000000
RightFoot 16.707092 -1.873075 6.445511
RightToeBase 10.721697 -0.000000 -0.000000
LeftUpLeg -34.932525 41.900743 3.012051
LeftLeg 0.647442 -0.000000 -0.000000
LeftFoot -17.821434 6.121974 -38.698706
LeftToeBase 11.107329 -0.000000 -0.000000
Spine 44.381876 -29.533431 -24.421840
RightShoulder -23.779328 -20.764205 -17.331199
RightArm -11.016346 36.988549 54.332813
RightForeArm 26.224615 -0.000000 12.332494
RightHand 15.841051 0.000000 -18.174402
RightHandThumb1 -24.326973 -0.000000 -32.862282
LeftShoulder -0.709251 -17.848486 28.279626
LeftArm 47.793983 -7.203601 -56.885676
LeftForeArm 6.805607 -0.000000 4.629290
LeftHand -1.489481 -0.000000 -10.648263
LeftHandThumb1 -26.253704 0.000000 33.147579
Head -18.930964 -31.462769 17.760926
1103
root 2.932529 29.904880 -6.885331 66.089108 -53.358997 -13.653657
RightUpLeg -75.370816 4.141944 -0.867404
RightLeg -4.144489 -0.000000 0.000000
RightFoot 16.732947 -1.884626 6.419382
RightToeBase 10.729967 -0.000000 -0.000000
LeftUpLeg -34.823565 41.814462 3.043162
LeftLeg 0.676150 -0.000000 -0.000000
LeftFoot -17.760296 6.054164 -38.635213
LeftToeBase 11.100406 -0.000000 -0.000000
Spine 43.991220 -29.537747 -24.136336
RightShoulder -23.841892 -20.792392 -17.331250
RightArm -10.845283 37.124862 54.387795
RightForeArm 26.152296 -0.000000 12.422055
RightHand 15.696716 -0.000000 -18.251925
RightHandThumb1 -24.326973 -0.000000 -32.862282
LeftShoulder -0.888992 -17.604419 28.183040
LeftArm 47.830125 -7.155454 -56.823808
LeftForeArm 6.909820 -0.000000 4.721822
LeftHand -1.522957 -0.000000 -10.626753
LeftHandThumb1 -26.253704 0.000000 33.147579
Head -19.190690 -30.726661 17.670356
1104
root 2.949643 29.905348 -6.889994 65.687957 -53.294763 -13.403438
RightUpLeg -75.150551 3.968956 -0.838941
RightLeg -4.217774 -0.000000 0.000000
RightFoot 16.751064 -1.881997 6.413034
RightToeBase 10.700516 -0.000000 -0.000000
LeftUpLeg -34.699052 41.694542 3.098219
LeftLeg 0.719829 -0.000000 -0.000000
LeftFoot -17.727914 6.013039 -38.547066
LeftToeBase 11.086512 -0.000000 -0.000000
Spine 43.581616 -29.578112 -23.856697
RightShoulder -23.853569 -20.709303 -17.456570
RightArm -10.807371 37.123506 54.405449
RightForeArm 26.074972 -0.000000 12.516572
RightHand 15.657639 -0.000000 -18.382978
RightHandThumb1 -24.326973 -0.000000 -32.862282
LeftShoulder -1.064703 -17.611903 28.060149
LeftArm 47.614689 -6.994120 -56.684037
LeftForeArm 7.010579 -0.000000 4.757738
LeftHand -1.450937 0.000000 -10.543018
LeftHandThumb1 -26.253704 0.000000 33.147579
Head -19.433966 -30.053518 17.508360
1105
root 2.965006 29.905759 -6.893296 65.284951 -53.231149 -13.168934
RightUpLeg -74.909866 3.807312 -0.815686
RightLeg -4.298175 -0.000000 0.000000
RightFoot 16.765647 -1.881342 6.412909
RightToeBase 10.780461 -0.000000 -0.000000
LeftUpLeg -34.534955 41.582219 3.171125
LeftLeg 0.738440 -0.000000 -0.000000
LeftFoot -17.684486 5.971190 -38.472213
LeftToeBase 11.060782 -0.000000 -0.000000
Spine 43.127944 -29.565279 -23.571479
RightShoulder -23.819254 -20.764778 -17.503832
RightArm -10.716824 37.229333 54.451245
RightForeArm 25.979936 0.000000 12.555089
RightHand 15.871264 -0.000000 -18.163043
RightHandThumb1 -24.326973 -0.000000 -32.862282
LeftShoulder -1.182291 -17.486373 28.006060
LeftArm 47.423530 -6.875392 -56.592022
LeftForeArm 7.223817 0.000000 4.881019
LeftHand -1.391035 -0.000000 -10.418686
LeftHandThumb1 -26.253704 0.000000 33.147579
Head -19.515400 -29.311928 17.305869
1106
root 2.981643 29.908401 -6.895664 64.888808 -53.128979 -12.923315
RightUpLeg -74.676102 3.624564 -0.786793
RightLeg -4.383258 -0.000000 0.000000
RightFoot 16.797072 -1.935471 6.499807
RightToeBase 10.764930 -0.000000 -0.000000
LeftUpLeg -34.372404 41.383198 3.302667
LeftLeg 0.759855 -0.000000 -0.000000
LeftFoot -17.694611 5.997200 -38.403809
LeftToeBase 11.086600 -0.000000 -0.000000
Spine 42.708807 -29.606512 -23.209681
RightShoulder -23.873867 -20.657371 -17.603299
RightArm -10.676107 37.235578 54.454327
RightForeArm 25.972663 -0.000000 12.625802
RightHand 15.858466 0.000000 -18.396344
RightHandThumb1 -24.326973 -0.000000 -32.862282
LeftShoulder -1.355016 -17.481694 28.016802
LeftArm 47.076786 -6.747092 -56.616490
LeftForeArm 7.369158 0.000000 5.098672
LeftHand -1.427758 -0.000000 -10.201348
LeftHandThumb1 -26.253704 0.000000 33.147579
Head -19.860826 -28.663181 17.157915
1107
root 2.995908 29.909432 -6.896033 64.514471 -53.057868 -12.681732
RightUpLeg -74.469870 3.447550 -0.768141
RightLeg -4.457493 -0.000000 0.000000
RightFoot 16.814370 -1.916167 6.536133
RightToeBase 10.731743 -0.000000 -0.000000
LeftUpLeg -34.198606 41.195938 3.406349
LeftLeg 0.749616 -0.000000 -0.000000
LeftFoot -17.684336 6.024364 -38.351538
LeftToeBase 11.078305 -0.000000 -0.000000
Spine 42.239315 -29.661751 -22.891962
RightShoulder -23.878298 -20.601801 -17.691671
RightArm -10.580462 37.256581 54.479986
RightForeArm 25.949576 0.000000 12.664925
RightHand 15.911307 0.000000 -18.173352
RightHandThumb1 -24.326973 -0.000000 -32.862282
LeftShoulder -1.603415 -17.436719 27.951332
LeftArm 46.854329 -6.526661 -56.497680
LeftForeArm 7.693459 -0.000000 5.132906
LeftHand -1.283954 -0.000000 -10.123206
LeftHandThumb1 -26.253704 0.000000 33.147579
Head -20.155647 -28.028521 17.089913
